<svg xmlns="http://www.w3.org/2000/svg" width="1199" height="256" fill="none"><path fill="#000" d="M1150.89 177.512c-5.63 0-10.03-1.408-13.2-4.224-3.08-2.816-4.62-7.304-4.62-13.464V114.68h-9.11v-1.32l3.17-.528c2.73-.616 5.06-1.496 7-2.64 2.02-1.144 4-2.684 5.94-4.62l10.82-12.012h1.32l-.39 18.48h14.78v2.64h-14.92v47.52c0 3.08.66 5.412 1.98 6.996 1.41 1.584 3.17 2.376 5.28 2.376 1.85 0 3.48-.44 4.89-1.32 1.41-.968 2.81-2.244 4.22-3.828l1.32 1.32c-1.76 2.992-4.18 5.368-7.26 7.128-3.08 1.76-6.82 2.64-11.22 2.64zm-46.23-74.316c-3 0-5.55-.924-7.66-2.772-2.02-1.936-3.04-4.356-3.04-7.26 0-2.992 1.02-5.412 3.04-7.26 2.11-1.848 4.66-2.772 7.66-2.772 2.99 0 5.5.924 7.52 2.772 2.02 1.848 3.04 4.268 3.04 7.26 0 2.904-1.02 5.324-3.04 7.26-2.02 1.848-4.53 2.772-7.52 2.772zm-15.58 72.336v-1.32l1.85-.528c1.76-.528 2.95-1.32 3.56-2.376.71-1.056 1.06-2.464 1.06-4.224v-41.316c0-1.848-.35-3.212-1.06-4.092-.61-.968-1.8-1.628-3.56-1.98l-1.85-.396v-1.32l24.16-7.788 1.32 1.32-.4 18.744v36.96c0 1.76.31 3.168.92 4.224.71 1.056 1.9 1.848 3.57 2.376l1.32.396v1.32h-30.89zm-54.39 1.716-22.31-1.716v-1.32l1.32-.264c3.43-.792 5.15-2.992 5.15-6.6v-70.62c0-1.848-.31-3.256-.93-4.224-.52-.968-1.67-1.628-3.43-1.98l-1.85-.528v-1.32l23.5-5.676 1.58 1.188-.52 18.612v13.332c2.9-2.024 6.07-3.52 9.5-4.488a35.277 35.277 0 0 1 10.43-1.584c5.01 0 9.46 1.188 13.33 3.564 3.87 2.288 6.91 5.896 9.11 10.824 2.29 4.84 3.43 11.088 3.43 18.744 0 7.656-1.28 14.036-3.83 19.14-2.46 5.016-5.81 8.8-10.03 11.352-4.14 2.552-8.71 3.828-13.73 3.828-3.25 0-6.55-.44-9.9-1.32-3.25-.88-6.16-2.112-8.71-3.696l-2.11 4.752zm14.12-4.224c2.82 0 5.28-.88 7.39-2.64 2.12-1.76 3.79-4.752 5.02-8.976 1.23-4.312 1.85-10.208 1.85-17.688 0-7.48-.57-13.244-1.72-17.292-1.14-4.048-2.77-6.864-4.88-8.448-2.03-1.584-4.49-2.376-7.39-2.376-4.14 0-7.97 1.144-11.49 3.432v50.688a25.22 25.22 0 0 0 5.15 2.508c1.76.528 3.78.792 6.07.792zm-90.305 4.224-22.308-1.716v-1.32l1.32-.264c3.432-.792 5.148-2.992 5.148-6.6v-70.62c0-1.848-.308-3.256-.924-4.224-.528-.968-1.672-1.628-3.432-1.98l-1.848-.528v-1.32L959.957 83l1.584 1.188-.528 18.612v13.332a31.418 31.418 0 0 1 9.504-4.488 35.274 35.274 0 0 1 10.428-1.584c5.016 0 9.46 1.188 13.332 3.564 3.872 2.288 6.913 5.896 9.113 10.824 2.28 4.84 3.43 11.088 3.43 18.744 0 7.656-1.28 14.036-3.83 19.14-2.46 5.016-5.809 8.8-10.033 11.352-4.136 2.552-8.712 3.828-13.728 3.828-3.256 0-6.556-.44-9.9-1.32-3.256-.88-6.16-2.112-8.712-3.696l-2.112 4.752zm14.124-4.224c2.816 0 5.28-.88 7.392-2.64 2.112-1.76 3.784-4.752 5.016-8.976 1.232-4.312 1.848-10.208 1.848-17.688 0-7.48-.572-13.244-1.716-17.292-1.144-4.048-2.772-6.864-4.884-8.448-2.024-1.584-4.488-2.376-7.392-2.376-4.136 0-7.964 1.144-11.484 3.432v50.688a25.256 25.256 0 0 0 5.148 2.508c1.76.528 3.784.792 6.072.792zm-85.744 4.488c-5.104 0-9.416-1.452-12.936-4.356-3.432-2.904-5.148-7.084-5.148-12.54 0-4.136 2.112-7.92 6.336-11.352 4.224-3.52 10.868-6.16 19.932-7.92 1.408-.264 2.992-.528 4.752-.792a322.23 322.23 0 0 1 5.544-1.056v-10.428c0-5.984-.748-10.164-2.244-12.54-1.408-2.464-3.652-3.696-6.732-3.696-2.112 0-3.784.704-5.016 2.112-1.232 1.32-2.024 3.652-2.376 6.996l-.264 1.452c-.176 3.784-1.1 6.556-2.772 8.316-1.672 1.76-3.74 2.64-6.204 2.64-2.288 0-4.18-.704-5.676-2.112-1.496-1.408-2.244-3.3-2.244-5.676 0-3.608 1.232-6.644 3.696-9.108 2.552-2.464 5.896-4.312 10.032-5.544 4.136-1.232 8.624-1.848 13.464-1.848 7.832 0 13.86 1.936 18.084 5.808 4.312 3.784 6.468 9.988 6.468 18.612v29.172c0 3.96 1.848 5.94 5.544 5.94h2.904l1.188 1.056c-1.672 2.112-3.52 3.74-5.544 4.884-1.936 1.144-4.708 1.716-8.316 1.716-3.872 0-6.952-.88-9.24-2.64-2.2-1.848-3.652-4.268-4.356-7.26-2.64 2.816-5.368 5.236-8.184 7.26-2.728 1.936-6.292 2.904-10.692 2.904zm8.052-8.052c1.76 0 3.388-.396 4.884-1.188 1.584-.88 3.432-2.2 5.544-3.96v-22.176l-2.64.528c-.88.176-1.892.352-3.036.528-4.048 1.056-7.304 2.86-9.768 5.412-2.376 2.464-3.564 5.808-3.564 10.032 0 3.608.836 6.336 2.508 8.184 1.672 1.76 3.696 2.64 6.072 2.64zm-109.174 6.072v-1.32l2.772-.924c1.76-.616 2.904-1.408 3.432-2.376.528-1.056.792-2.508.792-4.356V97.52c0-1.76-.264-3.124-.792-4.092-.44-1.056-1.496-1.892-3.168-2.508l-3.036-1.188v-1.32h37.752c10.384 0 18.348 1.98 23.892 5.94 5.544 3.872 8.316 9.284 8.316 16.236 0 3.872-1.452 7.744-4.356 11.616s-7.48 6.864-13.728 8.976l18.348 36.432c.792 1.496 1.672 2.728 2.64 3.696 1.056.88 2.42 1.672 4.092 2.376l1.716.66v1.188h-23.628l-19.536-41.58h-8.976v32.604c0 1.672.264 3.036.792 4.092.528 1.056 1.628 1.848 3.3 2.376l3.168 1.188v1.32h-33.792zm26.532-44.22h6.336c6.336 0 10.912-1.672 13.728-5.016 2.816-3.432 4.224-8.492 4.224-15.18 0-6.776-1.32-11.792-3.96-15.048-2.64-3.344-7.084-5.016-13.332-5.016h-6.996v40.26zm-67.113 21.384c-6.072 0-11.22-1.012-15.444-3.036v4.488c0 2.728 1.364 4.356 4.092 4.884l24.816 4.62c4.136.792 7.876 1.848 11.22 3.168 3.344 1.232 6.028 3.036 8.052 5.412 2.024 2.288 3.036 5.456 3.036 9.504 0 4.312-1.408 8.272-4.224 11.88-2.816 3.696-6.996 6.644-12.54 8.844-5.456 2.288-12.276 3.432-20.46 3.432-7.04 0-12.628-.748-16.764-2.244-4.136-1.408-7.084-3.256-8.844-5.544-1.672-2.288-2.508-4.708-2.508-7.26 0-3.168 1.056-6.38 3.168-9.636 2.2-3.168 4.884-5.72 8.052-7.656-2.728-1.056-4.708-2.42-5.94-4.092-1.232-1.672-1.848-3.476-1.848-5.412 0-1.76.44-3.388 1.32-4.884a40.162 40.162 0 0 1 3.432-4.752l4.356-5.544c-6.424-3.696-9.636-9.504-9.636-17.424 0-6.336 2.244-11.484 6.732-15.444 4.576-3.96 11.264-5.94 20.064-5.94 4.488 0 8.404.528 11.748 1.584 3.432 1.056 6.248 2.552 8.448 4.488 2.816-.44 5.456-1.144 7.92-2.112a24.872 24.872 0 0 0 6.864-4.224l1.848 1.32v6.732h-14.916c3.168 3.52 4.752 8.052 4.752 13.596 0 6.16-2.288 11.264-6.864 15.312-4.488 3.96-11.132 5.94-19.932 5.94zm-.132-2.64c3.52 0 6.072-1.452 7.656-4.356 1.672-2.904 2.508-7.744 2.508-14.52s-.836-11.528-2.508-14.256c-1.584-2.816-4.048-4.224-7.392-4.224-3.256 0-5.72 1.452-7.392 4.356-1.672 2.816-2.508 7.612-2.508 14.388s.748 11.572 2.244 14.388c1.584 2.816 4.048 4.224 7.392 4.224zm-19.668 36.564c0 5.192 1.584 9.108 4.752 11.748 3.256 2.64 8.36 3.96 15.312 3.96 7.304 0 12.804-1.188 16.5-3.564 3.696-2.376 5.544-5.72 5.544-10.032 0-2.464-.924-4.444-2.772-5.94-1.76-1.496-4.796-2.64-9.108-3.432l-23.892-4.488-2.112-.528c-1.232 1.76-2.244 3.74-3.036 5.94-.792 2.288-1.188 4.4-1.188 6.336zm-85.289-11.088v-1.32l1.848-.528c3.08-.88 4.62-3.036 4.62-6.468V125.9c0-1.936-.308-3.344-.924-4.224-.616-.968-1.804-1.628-3.564-1.98l-1.98-.528v-1.32l22.572-7.656 1.32 1.32 1.056 7.92c3.08-2.728 6.556-4.972 10.428-6.732 3.872-1.76 7.7-2.64 11.484-2.64 5.808 0 10.252 1.584 13.332 4.752 3.168 3.168 4.752 8.008 4.752 14.52v38.016c0 3.432 1.672 5.588 5.016 6.468l1.188.396v1.32h-31.152v-1.32l1.716-.528c3.08-.968 4.62-3.124 4.62-6.468v-42.108c0-5.632-2.816-8.448-8.448-8.448-3.872 0-8.096 1.936-12.672 5.808v44.88c0 3.432 1.54 5.588 4.62 6.468l1.188.396v1.32h-31.02zm-21.156-72.336c-2.992 0-5.544-.924-7.656-2.772-2.024-1.936-3.036-4.356-3.036-7.26 0-2.992 1.012-5.412 3.036-7.26 2.112-1.848 4.664-2.772 7.656-2.772s5.5.924 7.524 2.772c2.024 1.848 3.036 4.268 3.036 7.26 0 2.904-1.012 5.324-3.036 7.26-2.024 1.848-4.532 2.772-7.524 2.772zm-15.576 72.336v-1.32l1.848-.528c1.76-.528 2.948-1.32 3.564-2.376.704-1.056 1.056-2.464 1.056-4.224v-41.316c0-1.848-.352-3.212-1.056-4.092-.616-.968-1.804-1.628-3.564-1.98l-1.848-.396v-1.32l24.156-7.788 1.32 1.32-.396 18.744v36.96c0 1.76.308 3.168.924 4.224.704 1.056 1.892 1.848 3.564 2.376l1.32.396v1.32h-30.888zm-48.077 1.98c-5.192 0-9.856-1.144-13.992-3.432-4.136-2.376-7.436-5.984-9.9-10.824-2.376-4.928-3.564-11.22-3.564-18.876 0-7.744 1.364-14.124 4.092-19.14 2.728-5.104 6.336-8.888 10.824-11.352 4.488-2.552 9.372-3.828 14.652-3.828 3.08 0 6.028.308 8.844.924 2.816.616 5.324 1.54 7.524 2.772v-17.16c0-1.848-.308-3.212-.924-4.092-.528-.88-1.716-1.496-3.564-1.848l-2.508-.528v-1.32L590.792 83l1.452 1.188-.528 18.48v64.548c0 1.76.308 3.212.924 4.356.616 1.056 1.76 1.804 3.432 2.244l1.188.396v1.32l-22.572 1.452-1.188-4.752c-2.376 1.584-5.104 2.86-8.184 3.828-2.992.968-6.336 1.452-10.032 1.452zm7.656-4.884c3.696 0 7.084-1.1 10.164-3.3v-52.404c-3.256-2.112-6.6-3.168-10.032-3.168-4.224 0-7.832 2.464-10.824 7.392-2.992 4.84-4.488 12.496-4.488 22.968s1.408 17.864 4.224 22.176c2.816 4.224 6.468 6.336 10.956 6.336zm-111.952 2.904v-1.32l1.848-.528c3.08-.88 4.62-3.036 4.62-6.468V125.9c0-1.936-.308-3.344-.924-4.224-.616-.968-1.804-1.628-3.564-1.98l-1.98-.528v-1.32l22.572-7.656 1.32 1.32 1.056 7.92c3.08-2.728 6.556-4.972 10.428-6.732 3.872-1.76 7.7-2.64 11.484-2.64 5.808 0 10.252 1.584 13.332 4.752 3.168 3.168 4.752 8.008 4.752 14.52v38.016c0 3.432 1.672 5.588 5.016 6.468l1.188.396v1.32h-31.152v-1.32l1.716-.528c3.08-.968 4.62-3.124 4.62-6.468v-42.108c0-5.632-2.816-8.448-8.448-8.448-3.872 0-8.096 1.936-12.672 5.808v44.88c0 3.432 1.54 5.588 4.62 6.468l1.188.396v1.32h-31.02zm-48.791 1.98c-5.104 0-9.416-1.452-12.936-4.356-3.432-2.904-5.148-7.084-5.148-12.54 0-4.136 2.112-7.92 6.336-11.352 4.224-3.52 10.868-6.16 19.932-7.92 1.408-.264 2.992-.528 4.752-.792a322.23 322.23 0 0 1 5.544-1.056v-10.428c0-5.984-.748-10.164-2.244-12.54-1.408-2.464-3.652-3.696-6.732-3.696-2.112 0-3.784.704-5.016 2.112-1.232 1.32-2.024 3.652-2.376 6.996l-.264 1.452c-.176 3.784-1.1 6.556-2.772 8.316-1.672 1.76-3.74 2.64-6.204 2.64-2.288 0-4.18-.704-5.676-2.112-1.496-1.408-2.244-3.3-2.244-5.676 0-3.608 1.232-6.644 3.696-9.108 2.552-2.464 5.896-4.312 10.032-5.544 4.136-1.232 8.624-1.848 13.464-1.848 7.832 0 13.86 1.936 18.084 5.808 4.312 3.784 6.468 9.988 6.468 18.612v29.172c0 3.96 1.848 5.94 5.544 5.94h2.904l1.188 1.056c-1.672 2.112-3.52 3.74-5.544 4.884-1.936 1.144-4.708 1.716-8.316 1.716-3.872 0-6.952-.88-9.24-2.64-2.2-1.848-3.652-4.268-4.356-7.26-2.64 2.816-5.368 5.236-8.184 7.26-2.728 1.936-6.292 2.904-10.692 2.904zm8.052-8.052c1.76 0 3.388-.396 4.884-1.188 1.584-.88 3.432-2.2 5.544-3.96v-22.176l-2.64.528c-.88.176-1.892.352-3.036.528-4.048 1.056-7.304 2.86-9.768 5.412-2.376 2.464-3.564 5.808-3.564 10.032 0 3.608.836 6.336 2.508 8.184 1.672 1.76 3.696 2.64 6.072 2.64zm-98.345 6.072v-1.32l2.772-1.056c1.848-.704 2.992-1.54 3.432-2.508.528-1.056.792-2.464.792-4.224V97.52c0-1.76-.264-3.168-.792-4.224s-1.672-1.892-3.432-2.508l-2.772-1.056v-1.32h33.66v1.32l-2.376 1.056c-1.672.616-2.816 1.496-3.432 2.64-.616 1.056-.924 2.464-.924 4.224v75.24h20.328c3.256 0 5.632-.792 7.128-2.376 1.584-1.584 3.08-3.872 4.488-6.864l5.148-11.088h1.32l-1.188 22.968h-64.152z"/><mask id="a" width="239" height="55" x="7" y="170" maskUnits="userSpaceOnUse" style="mask-type:alpha"><ellipse cx="126.532" cy="197.475" fill="#000" rx="119.237" ry="27.392"/></mask><g mask="url(#a)"><path fill="#000" fill-rule="evenodd" d="M240.06 200.086c1.106-1.241 1.314-2.095 1.314-2.611 0-.515-.208-1.369-1.314-2.61-1.129-1.268-2.997-2.701-5.764-4.203-5.528-3.003-13.818-5.845-24.437-8.285-21.168-4.863-50.631-7.911-83.327-7.911s-62.158 3.048-83.327 7.911c-10.619 2.44-18.909 5.282-24.437 8.285-2.767 1.502-4.635 2.935-5.764 4.203-1.105 1.241-1.314 2.095-1.314 2.61 0 .516.209 1.37 1.314 2.611 1.13 1.268 2.997 2.7 5.764 4.203 5.528 3.003 13.818 5.845 24.437 8.285 21.169 4.863 50.631 7.911 83.327 7.911s62.159-3.048 83.327-7.911c10.619-2.44 18.909-5.282 24.437-8.285 2.767-1.503 4.635-2.935 5.764-4.203zm-113.528 24.782c65.853 0 119.238-12.264 119.238-27.393 0-15.128-53.385-27.392-119.238-27.392-65.853 0-119.237 12.264-119.237 27.392 0 15.129 53.384 27.393 119.237 27.393z" clip-rule="evenodd"/><path fill="#000" fill-opacity=".3" d="M245.732 196.389c0 21.482-53.385 38.897-119.238 38.897-65.853 0-119.237-17.415-119.237-38.897s53.384-38.897 119.237-38.897 119.238 17.415 119.238 38.897z"/><path fill="#000" fill-rule="evenodd" d="M194.118 174.466a2.743 2.743 0 0 1 2.748 2.739v14.244a2.743 2.743 0 0 1-2.748 2.739 2.743 2.743 0 0 1-2.747-2.739v-14.244a2.743 2.743 0 0 1 2.747-2.739zm-153.855 3.287a2.743 2.743 0 0 1 2.748 2.739v10.957a2.743 2.743 0 0 1-2.748 2.739 2.743 2.743 0 0 1-2.747-2.739v-10.957a2.743 2.743 0 0 1 2.748-2.739zm163.746 0a2.743 2.743 0 0 1 2.747 2.739v10.957a2.743 2.743 0 0 1-2.747 2.739 2.743 2.743 0 0 1-2.747-2.739v-10.957a2.743 2.743 0 0 1 2.747-2.739zm-180.78 3.835a2.743 2.743 0 0 1 2.748 2.739v13.696a2.743 2.743 0 0 1-2.747 2.739 2.743 2.743 0 0 1-2.748-2.739v-13.696a2.743 2.743 0 0 1 2.748-2.739zm203.858 1.643a2.744 2.744 0 0 1 2.748 2.74v12.052a2.743 2.743 0 0 1-2.748 2.739 2.743 2.743 0 0 1-2.747-2.739v-12.052c0-1.513 1.23-2.74 2.747-2.74z" clip-rule="evenodd"/><path fill="url(#b)" d="M245.77 208.432c0 15.129-53.385 27.393-119.238 27.393-65.853 0-119.237-12.264-119.237-27.393 0-15.128 53.384-27.392 119.237-27.392s119.238 12.264 119.238 27.392z"/></g><path fill="#fff" d="M20.52 124.064c14.287 5.479 28.024-15.339 31.87-21.366 4.73-7.411 6.187-13.211 10.59-24.105 8.473 10.08 14.054 21 15.785 25.2-14.316 13.658-17.438 31.798-17.583 41.089-2.564 1.096-11.32 7.342-8.242 23.558 3.077 16.216 23.994 25.931 32.419 28.488v20.27s8.792 5.478 35.716 4.93c26.925-.547 34.618-4.93 34.618-4.93 4.395-9.679 10.879-23.01 14.836-23.01 4.945 0 25.276-22.461 23.627-45.471-1.648-23.009-18.682-39.444-27.474-49.853 1.649-12.6 0-26.297-7.143-56.976-7.143-30.68-24.727-37.801-36.266-35.062-9.231 2.191-13.202 14.792-11.539 23.557 3.846 20.27 18.133 37.254 29.672 58.62-21.43-4.931-26.924-2.74-38.464 1.095-6.593-35.062-24.177-59.715-36.815-59.715-13.37 0-29.672 18.079-40.112 30.68-8.352 10.08-17.962 31.226-18.682 41.635-.367 5.296 1.758 16.984 13.187 21.366z"/><path fill="#000" fill-rule="evenodd" d="M141.018 14.41c-5.964-4.672-12.219-5.517-16.981-4.387-3.243.77-5.89 3.45-7.588 7.409-1.692 3.945-2.18 8.625-1.475 12.34 1.818 9.584 6.128 18.512 11.564 27.861 2.052 3.53 4.314 7.193 6.648 10.975 3.702 5.997 7.589 12.293 11.123 18.836l3.453 6.394-7.097-1.633c-10.584-2.435-16.941-3.039-21.953-2.664-4.756.356-8.47 1.592-13.851 3.384l-.876.291-3.586 1.192-.697-3.704c-3.23-17.176-9.136-31.694-15.674-41.834-3.272-5.075-6.641-8.958-9.823-11.536-3.224-2.612-5.974-3.664-8.078-3.664-5.385 0-11.997 3.763-18.995 9.811-6.834 5.907-13.377 13.4-18.575 19.675-3.918 4.728-8.267 12.245-11.738 19.948-3.5 7.768-5.879 15.22-6.197 19.821-.322 4.652 1.626 14.445 11.082 18.071 5.25 2.014 10.897-.598 16.424-5.71 5.366-4.963 9.57-11.36 11.48-14.352 3.228-5.056 4.782-9.166 7.073-15.22.913-2.413 1.942-5.135 3.242-8.35 3.113-7.702 4.624-14.779 5.708-20.725a3.296 3.296 0 0 1 3.833-2.646 3.288 3.288 0 0 1 2.654 3.822c-1.031 5.657-2.485 12.582-5.364 20.18 6.053 7.496 10.55 15.238 13.144 20.413a58.468 58.468 0 0 1 8.426-5.72c-1.57-9.305-3.552-16.01-5.577-20.661-2.233-5.13-4.347-7.372-5.643-8.125a3.282 3.282 0 0 1-1.187-4.496 3.302 3.302 0 0 1 4.51-1.183c3.1 1.803 5.93 5.587 8.368 11.186 2.483 5.703 4.74 13.713 6.416 24.572l.363 2.35-2.126 1.08a51.878 51.878 0 0 0-12.403 8.757c-13.441 12.823-16.429 29.958-16.567 38.766l-.033 2.13-1.964.84c-1.289.55-9.063 5.373-6.302 19.925 1.308 6.893 6.503 12.734 12.888 17.307 6.33 4.534 13.327 7.456 17.252 8.647l2.337.709v20.612c1.094.428 2.793.997 5.217 1.564 5.252 1.229 13.901 2.443 27.135 2.174 13.296-.271 21.728-1.486 26.762-2.594 2.515-.554 4.173-1.079 5.16-1.441l.279-.105c2.111-4.609 4.675-9.958 7.221-14.298 1.371-2.338 2.814-4.516 4.251-6.149.718-.816 1.52-1.595 2.398-2.192.816-.553 1.931-1.109 3.26-1.158.051-.023.338-.125.907-.49.793-.51 1.819-1.328 3.009-2.467 2.371-2.269 5.165-5.593 7.79-9.649 5.287-8.17 9.577-18.824 8.823-29.347-1.362-19.006-13.841-33.243-23.054-43.755a310.402 310.402 0 0 1-3.654-4.216l-.935-1.107.188-1.436c1.563-11.95.059-25.123-7.085-55.807-3.455-14.837-9.33-23.537-15.31-28.221zm13.081 199.91-.006.004.006-.004zm1.594 2.878c1.635 2.854 1.633 2.855 1.631 2.856l-.013.008-.021.011-.049.027a2.408 2.408 0 0 1-.078.042l-.057.029a9.923 9.923 0 0 1-.416.201 20.83 20.83 0 0 1-1.48.604c-1.297.476-3.245 1.081-6.019 1.691-5.543 1.221-14.419 2.47-28.048 2.748-13.691.278-22.9-.972-28.775-2.346-2.939-.687-5.044-1.406-6.457-1.979a21.162 21.162 0 0 1-1.618-.729 11.791 11.791 0 0 1-.593-.322l-.05-.031-.021-.012-.01-.006-.003-.002c-.002-.002-.004-.003 1.743-2.79l-1.747 2.787-1.55-.965v-19.727c-4.554-1.639-10.936-4.587-16.842-8.817-6.948-4.977-13.75-12.102-15.52-21.425-2.912-15.348 3.848-23.172 8.25-26.118.51-9.8 3.982-26.514 16.884-39.873-1.886-4.012-5.63-10.894-10.876-17.926-.311.817-.611 1.61-.903 2.381-2.401 6.349-4.267 11.282-7.883 16.948-1.937 3.034-6.524 10.059-12.56 15.642-5.875 5.435-14.239 10.493-23.275 7.027-13.403-5.139-15.704-18.721-15.293-24.66.401-5.808 3.188-14.134 6.76-22.062 3.602-7.993 8.235-16.09 12.67-21.441 5.24-6.326 12.07-14.173 19.34-20.455 7.105-6.142 15.33-11.418 23.313-11.418 4.215 0 8.403 2.03 12.236 5.136 3.875 3.14 7.684 7.611 11.212 13.083 6.571 10.192 12.381 24.183 15.867 40.49 4.199-1.37 8.082-2.469 12.777-2.82 4.551-.34 9.756.023 16.769 1.317-2.387-4.106-4.814-8.032-7.217-11.918-2.356-3.811-4.688-7.585-6.938-11.454-5.554-9.551-10.31-19.25-12.338-29.936-.959-5.05-.293-11.053 1.892-16.147 2.18-5.082 6.134-9.797 12.123-11.219 6.776-1.609 15.083-.262 22.581 5.612 7.482 5.861 13.971 16.062 17.659 31.904 6.881 29.55 8.796 43.83 7.378 56.682a372.5 372.5 0 0 0 2.512 2.867c9.133 10.357 23.272 26.39 24.805 47.79.894 12.486-4.157 24.568-9.86 33.38-2.87 4.436-5.983 8.166-8.763 10.827-1.386 1.327-2.746 2.443-4.005 3.251-1.04.669-2.463 1.43-3.978 1.525l-.047.031c-.251.17-.639.508-1.154 1.093-1.028 1.169-2.223 2.928-3.517 5.133-2.571 4.383-5.231 9.999-7.425 14.831l-.441.97-.927.528-1.635-2.854zM139.909 38.959a3.301 3.301 0 0 1 4.434 1.436C156.03 63.25 158.99 85.793 158.99 94.48a3.293 3.293 0 0 1-3.297 3.287 3.292 3.292 0 0 1-3.297-3.287c0-7.747-2.755-29.252-13.927-51.1a3.283 3.283 0 0 1 1.44-4.422z" clip-rule="evenodd"/><path fill="#000" fill-opacity=".1" d="M108.363 200.653c76.795 1.074 80.007-42.536 63.09-84.378-1.308-3.237 2.4-6.049 4.83-3.538 25.142 25.968 16.761 51.768 7.945 68.86-8.281 16.053-53.916 25.578-76.618 22.147-3.227-.488-2.51-3.136.753-3.091z"/><path fill="#000" d="M163.385 147.622c0 5.748-4.674 10.409-10.44 10.409-5.766 0-10.44-4.661-10.44-10.409 0-5.749 4.674-10.409 10.44-10.409 5.766 0 10.44 4.66 10.44 10.409zm-67.036 0c0 5.748-4.675 10.409-10.44 10.409-5.767 0-10.44-4.661-10.44-10.409 0-5.749 4.674-10.409 10.44-10.409 5.765 0 10.44 4.66 10.44 10.409zm27.474 3.834c0 2.421-2.706 4.383-6.045 4.383-3.338 0-6.044-1.962-6.044-4.383 0-2.42 2.706-4.382 6.044-4.382 3.339 0 6.045 1.962 6.045 4.382z"/><path fill="#000" fill-rule="evenodd" d="m115.059 152.165 5.434-.036c.524 3.347 1.249 5.592 2.013 7.024.755 1.418 1.429 1.831 1.799 1.958.364.125.947.15 1.902-.29.973-.449 2.12-1.293 3.366-2.536a2.752 2.752 0 0 1 3.885 0 2.734 2.734 0 0 1 0 3.874c-1.501 1.497-3.171 2.816-4.945 3.634-1.792.827-3.888 1.222-5.997.498-2.056-.706-3.625-2.305-4.785-4.423a11.76 11.76 0 0 1-.195.311c-1.446 2.233-3.402 3.588-5.699 3.847-2.177.245-4.166-.552-5.694-1.557-1.548-1.018-2.871-2.405-3.824-3.802a2.735 2.735 0 0 1 .727-3.806 2.753 2.753 0 0 1 3.817.725c.604.885 1.432 1.735 2.306 2.31.893.587 1.594.737 2.05.686.336-.038.956-.224 1.702-1.375.794-1.226 1.616-3.403 2.138-7.042z" clip-rule="evenodd"/><path fill="#E01919" fill-opacity=".2" d="M174.336 160.77c0 2.118-2.706 4.931-6.044 4.931-3.338 0-6.006 0-7.654-2.74 0-3.835 4.316-7.669 7.654-7.669s6.044 3.36 6.044 5.478z"/><path fill="#E01919" fill-opacity=".2" d="M174.336 160.77c0 2.118-2.706 4.931-6.044 4.931-3.338 0-6.006 0-7.654-2.74 0-3.835 4.316-7.669 7.654-7.669s6.044 3.36 6.044 5.478zm-107.212-2.961c1.28-1.691 5.139-2.312 7.804-.308s4.794 3.606 4.456 6.782c-2.316 3.062-8.078 3.533-10.743 1.528-2.665-2.004-2.796-6.311-1.517-8.002z"/><path fill="#E01919" fill-opacity=".2" d="M67.124 157.809c1.28-1.691 5.139-2.312 7.804-.308s4.794 3.606 4.456 6.782c-2.316 3.062-8.078 3.533-10.743 1.528-2.665-2.004-2.796-6.311-1.517-8.002z"/><path fill="#000" fill-rule="evenodd" d="M223.766 145.35a2.734 2.734 0 0 1-.407 3.853l-11.539 9.313a2.754 2.754 0 0 1-3.864-.405 2.733 2.733 0 0 1 .407-3.853l11.539-9.313a2.753 2.753 0 0 1 3.864.405zm3.909 23.638c-6.066 0-11.295 2.041-12.971 2.952a2.752 2.752 0 0 1-3.728-1.093 2.734 2.734 0 0 1 1.097-3.716c2.353-1.28 8.479-3.622 15.602-3.622a2.743 2.743 0 0 1 2.747 2.739c0 1.513-1.23 2.74-2.747 2.74zM23.817 147.074a2.743 2.743 0 0 1 2.747-2.739c1.477 0 3.038.541 4.375 1.138 1.41.628 2.897 1.472 4.318 2.366 2.844 1.791 5.635 3.921 7.353 5.348a2.734 2.734 0 0 1 .352 3.858 2.754 2.754 0 0 1-3.87.351c-1.579-1.312-4.173-3.291-6.768-4.924-1.3-.818-2.545-1.515-3.63-1.999-1.156-.516-1.848-.66-2.13-.66a2.743 2.743 0 0 1-2.747-2.739zm9.111 21.369c-2.23.193-4.148.859-5.135 1.351a2.75 2.75 0 0 1-3.686-1.225 2.735 2.735 0 0 1 1.229-3.675c1.577-.786 4.165-1.654 7.118-1.909 2.967-.256 6.511.091 9.781 1.993a2.734 2.734 0 0 1 .99 3.746 2.751 2.751 0 0 1-3.758.986c-2.005-1.166-4.322-1.458-6.539-1.267zm119.621-44.304c-2.483 1.768-4.68 5.608-5.817 8.748a2.2 2.2 0 0 1-2.814 1.317 2.19 2.19 0 0 1-1.32-2.806c1.244-3.434 3.828-8.285 7.397-10.826 1.859-1.322 4.178-2.146 6.741-1.528 2.5.603 4.752 2.467 6.78 5.441a2.186 2.186 0 0 1-.581 3.044 2.203 2.203 0 0 1-3.054-.579c-1.707-2.504-3.155-3.399-4.178-3.646-.96-.231-1.985.004-3.154.835zm-65.599 5.107c-1.693-.293-3.097.338-4.391 1.772-.812.9-2.202.973-3.104.163a2.187 2.187 0 0 1-.164-3.095c2.003-2.218 4.83-3.778 8.412-3.158 3.388.586 6.97 3.058 10.832 7.588a2.187 2.187 0 0 1-.251 3.089 2.203 2.203 0 0 1-3.099-.251c-3.611-4.236-6.348-5.782-8.234-6.108z" clip-rule="evenodd"/><path fill="#fff" d="M164.862 196.146c17.441-2.285 21.662 8.744 24.799 18.088a2.186 2.186 0 0 1-.634 2.339l-8.22 7.204a6.397 6.397 0 0 1-.287.253c-2.397 1.976-4.517 4.694-13.249 1.497-2.437 3.421-8.98 3.845-15.081 0-.353 2.861-2.328 4.525-7.804 1.799-12.045-5.996-2.409-28.182 20.476-31.18z"/><path fill="#000" fill-rule="evenodd" d="M184.964 198.512c4.246 4.26 6.281 10.084 7.823 14.679a5.465 5.465 0 0 1-1.583 5.85l-8.186 7.175a8.86 8.86 0 0 1-.397.346c-.121.1-.258.219-.412.354-.984.856-2.657 2.311-5.064 2.972-2.431.666-5.306.515-8.983-.596-1.96 1.513-4.488 2.197-6.993 2.246-2.375.046-4.925-.457-7.443-1.512a5.797 5.797 0 0 1-2.414 1.593c-2.553.904-5.484.098-8.399-1.353-4.016-1.999-6.308-5.456-6.89-9.448-.563-3.867.49-8.028 2.629-11.818 4.296-7.615 13.357-14.486 25.78-16.113 9.538-1.25 16.047 1.125 20.532 5.625zm-29.016 25.309c1.86.834 3.627 1.173 5.092 1.144 1.827-.036 2.885-.608 3.389-1.153l.001-.034c.013-.314-.025-.765-.12-1.417a50.094 50.094 0 0 0-.101-.651 45.33 45.33 0 0 1-.212-1.422c-.076-.623-.19-1.714.078-2.765a3.299 3.299 0 0 1 4.007-2.378 3.288 3.288 0 0 1 2.419 3.846c.001.043.004.194.041.498.042.336.088.619.143.958.043.269.093.574.15.969.078.533.159 1.176.184 1.849 2.341.599 3.636.487 4.377.284.866-.238 1.33-.629 2.295-1.444.204-.172.431-.364.688-.576l.207-.182c.596-.57.978-1.406 1.221-2.47a16.204 16.204 0 0 0 .273-1.686c.027-.211.057-.453.088-.662.033-.219.098-.627.235-1.037a3.301 3.301 0 0 1 5.828-.846l.07-.061c-1.525-4.48-3.152-8.567-6.014-11.439-2.77-2.779-7.092-4.777-14.996-3.741-10.462 1.37-17.661 7.091-20.892 12.818-1.625 2.88-2.153 5.577-1.851 7.65.284 1.948 1.304 3.513 3.311 4.512 1.197.596 2.052.874 2.624.983.16.03.287.046.384.052.018-.077.036-.174.051-.295.173-1.405.565-2.709.906-3.837l.056-.185c.337-1.111.658-2.168.909-3.417a3.297 3.297 0 0 1 3.88-2.578 3.288 3.288 0 0 1 2.585 3.869c-.315 1.569-.719 2.901-1.049 3.986l-.069.226c-.067.223-.13.433-.188.632zm8.464.145.003-.013-.003.013z" clip-rule="evenodd"/><path fill="#fff" d="M73.226 192.714c-16.314 1.683-23.206 15.425-15.47 29.447 1.875 3.739 6.329 7.712 10.548 0l1.076-1.908c1.885 6.051 6.098 11.417 13.8 4.011 2.063 5.466 7.04 3.601 9.033 0 11.252-20.332-8.438-31.55-18.987-31.55z"/><path fill="#000" fill-rule="evenodd" d="M73.056 189.427h.17c6.17 0 14.633 3.171 20.117 9.236 2.804 3.101 4.896 7.034 5.411 11.737.516 4.704-.577 9.892-3.654 15.452-1.364 2.466-3.901 4.666-6.94 5.07-1.608.214-3.32-.095-4.84-1.133a7.24 7.24 0 0 1-.87-.697c-1.151.764-2.308 1.329-3.477 1.673-2.296.676-4.488.449-6.4-.546-1.48-.771-2.666-1.932-3.616-3.253a9.945 9.945 0 0 1-2.06 1.755c-1.799 1.131-3.751 1.399-5.593.911-1.718-.455-3.084-1.495-4.083-2.535-1-1.041-1.8-2.253-2.384-3.406-4.26-7.758-4.68-15.849-1.294-22.389 3.4-6.568 10.305-10.925 19.344-11.858l.17-.017zm-7.221 30.405-.415.736-.01.019c-.906 1.656-1.64 2.328-2.028 2.573-.257.161-.337.134-.375.121a.194.194 0 0 1-.01-.003c-.157-.041-.52-.214-1.014-.729-.477-.496-.928-1.159-1.278-1.858l-.03-.058-.03-.056c-3.448-6.249-3.44-12.018-1.243-16.259 2.172-4.195 6.813-7.53 13.989-8.316 4.379.06 10.923 2.494 15.055 7.064 2.03 2.245 3.412 4.929 3.753 8.048.342 3.117-.323 6.956-2.872 11.562-.283.511-.67.953-1.082 1.268-.42.321-.765.436-.958.462-.144.019-.188-.004-.243-.042-.09-.062-.433-.344-.778-1.257-.514-1.363-.893-3.78-.61-7.722a3.29 3.29 0 0 0-3.052-3.514 3.294 3.294 0 0 0-3.524 3.043c-.234 3.245-.108 5.983.365 8.24-.992.761-1.77 1.139-2.339 1.306-.719.212-1.142.108-1.481-.069-1-.52-2.194-2.218-3.096-5.113a25.647 25.647 0 0 1-.95-4.512 3.295 3.295 0 0 0-3.66-2.881 3.289 3.289 0 0 0-2.89 3.648c.157 1.328.42 2.805.806 4.299z" clip-rule="evenodd"/><path fill="#000" fill-opacity=".1" d="M89.167 92.299c2.638-16.216-10.623-30.132-17.583-35.062l-7.693 20.27 6.045 12.6c5.311 7.488 16.594 18.408 19.231 2.192z"/><defs><radialGradient id="b" cx="0" cy="0" r="1" gradientTransform="matrix(0 47.1146 -510.208 0 119.389 180.502)" gradientUnits="userSpaceOnUse"><stop/><stop offset="1" stop-color="#4A4747"/></radialGradient></defs></svg>